<svg xmlns="http://www.w3.org/2000/svg" width="94.178" height="112.927" viewBox="0 0 94.178 112.927">
  <g id="Group_1503" data-name="Group 1503" transform="translate(-187.295 -7877.421)">
    <g id="Campus-hiring-report" transform="translate(181 7877.421)">
      <g id="Group_1486" data-name="Group 1486" transform="translate(6.295 0)">
        <path id="Path_6239" data-name="Path 6239" d="M-3880.913-1286.293a14.552,14.552,0,0,0,1.381-2.658c.9-1.975,1.96-3.86,3-5.759a4.752,4.752,0,0,0,.415-1,32.581,32.581,0,0,1,1.927-3.428,5.046,5.046,0,0,1,3.065-2c1.373-.448,2.8-.665,4.2-1.017,1.23-.311,2.474-.566,3.708-.868a1.055,1.055,0,0,1,.815-.017,10.888,10.888,0,0,1,.74,1.351,3.49,3.49,0,0,0,3.951,1.862,7.038,7.038,0,0,0,1.2-.261,1.624,1.624,0,0,0,1.162-2.155c-.067-.241-.232-.472-.113-.744.276-.224.534-.05.786.048,1.082.423,2.159.857,3.236,1.294.288.117.566.232.823-.053.062.527.438.735.862.98a7.163,7.163,0,0,1,3.638,5.541q.408,3.083.754,6.174c.164,1.467.263,2.942.416,4.41.218,2.084.572,4.162.658,6.25.067,1.634,1.161,2.29,2.285,2.986s2.308,1.329,3.458,2c.441.256.151.39.669.361.133-.007,3.135,1.764,1.593,1.089.609,1.236-4.1-.768-5.524-.763a1.317,1.317,0,0,0-.795.121c.259.158-1.073-.448-.828-.447,1.549.005,4.688.559,6.238.569.314,0,.654-.059.909.216a23.822,23.822,0,0,0,4.028,2.077c.008.569.367,1.118.1,1.7a.646.646,0,0,1-.5.063,48.76,48.76,0,0,1-11.573-3.54,6.839,6.839,0,0,1-4.024-6.32c-.141-2.238-.07-4.472-.113-6.708-.006-.3.043-.6.053-.828a73.1,73.1,0,0,1-2.132,8.706,23.292,23.292,0,0,0-.534,5.618,14.1,14.1,0,0,0,1.558,6.309c.149.277.357.548.248.9a2.178,2.178,0,0,1-1.054.44c-2.035-.082-4.071-.164-6.1-.288-1.306-.08-2.616-.093-3.92-.152-1.69-.077-3.384-.188-5.08-.18-.9,0-1.8-.135-2.7-.166-.58-.292-.588-.314-.183-.741a15.651,15.651,0,0,0,3.645-7.237,5.278,5.278,0,0,0-.179-2.365,46.15,46.15,0,0,0-2.806-8.37,26.637,26.637,0,0,0-2.063-4.085c-.466-.723-.733-.716-1.226-.016-.187.265-.4.5-.6.763-2.025,2.638-3.948,5.349-5.947,8.118a51.871,51.871,0,0,1,7.274,2.036c.457.26,1.119.17,1.368.792a7.074,7.074,0,0,1-.4,2.521,2.735,2.735,0,0,1-1.594.609.384.384,0,0,0-.363.074,16.418,16.418,0,0,1-4.6.412,18.771,18.771,0,0,1-5.687-.994,6.381,6.381,0,0,1-.715-.29,2.639,2.639,0,0,1-.955-.734c-.507-.495-.9-1.087-1.421-1.572a.957.957,0,0,1-.326-.742,30.809,30.809,0,0,1,1.483-4.442c.629-1.617,1.364-3.191,2.025-4.794A2.324,2.324,0,0,1-3880.913-1286.293Z" transform="translate(3894.091 1324.87)" fill="#cad0d9"/>
        <path id="Path_6240" data-name="Path 6240" d="M-3947.164-1128.576c.014.105-.01.249.049.31a20.079,20.079,0,0,0,2.412,2.526c1.965,2.129,3.813,4.359,5.649,6.6.83,1.013,1.675,2.014,2.483,3.045,2.47,3.126,4.883,6.3,7.175,9.555,1.61,2.291,3.166,4.617,4.627,7.007a64.363,64.363,0,0,1,5.027,9.78,28.506,28.506,0,0,1,1.355,4.091,1.274,1.274,0,0,1,.07.755,32.344,32.344,0,0,1-3.5.284,1.824,1.824,0,0,1-.926.246,9.027,9.027,0,0,1-3.739-.376,66.411,66.411,0,0,1-10.3-2.113,30.227,30.227,0,0,1-5.693-2.4,24.857,24.857,0,0,1-6.325-4.814,26.909,26.909,0,0,1-5.734-9.236,34.643,34.643,0,0,1-1.972-9.717,38.487,38.487,0,0,1,.2-7.694c.551-4.229,1.475-8.371,4.069-11.921.176-.241.359-.477.539-.716.943.927,1.825,1.914,2.724,2.882C-3948.376-1129.838-3947.756-1129.221-3947.164-1128.576Z" transform="translate(3956.606 1177.084)" fill="#afcbdf"/>
        <path id="Path_6241" data-name="Path 6241" d="M-3616.861-1033.966l.893-.3a1.326,1.326,0,0,1,.781-.408c3.412-1.02,6.874-1.85,10.335-2.683,1.28-.321,2.577-.552,3.871-.8.714-.137,1.438-.208,2.158-.311a3.516,3.516,0,0,1,1.377-.265,27.081,27.081,0,0,1,2.939-.21,1.26,1.26,0,0,1,.8.173c.471.033.941.067,1.412.1a3.2,3.2,0,0,1,2.72,1.979,8.179,8.179,0,0,1,.765,2.709,37.785,37.785,0,0,1-.448,10.254c-.159,1.1-.37,2.2-.557,3.3a4.941,4.941,0,0,1-.214,2.035c-.823,4.156-1.906,8.249-3.005,12.338q-.779,2.9-1.665,5.76a1.406,1.406,0,0,1-.438.84c-.319,1.018-.65,2.034-.952,3.057-.091.31-.225.486-.566.426a1.756,1.756,0,0,1-.76.014q-1.861-.323-3.728-.6a1.908,1.908,0,0,1-.772-.288c-.062-.016-.126-.027-.187-.048-.48-.164-1.162.043-1.433-.377a3.525,3.525,0,0,1-.249-1.507,80.555,80.555,0,0,1-.383-13.336,9.277,9.277,0,0,1,.251-3.037c.052-.4.124-.8.209-1.2.786-3.833,1.57-7.668,2.476-11.476.131-.554,0-.781-.522-1.007a95.07,95.07,0,0,0-13.1-4.321c-.519-.14-1.041-.276-1.548-.452C-3616.587-1033.672-3616.857-1033.66-3616.861-1033.966Z" transform="translate(3660.828 1094.886)" fill="#01223c"/>
        <path id="Path_6243" data-name="Path 6243" d="M-3448.988-874.9c1.367-4.378,2.532-8.811,3.652-13.257.642-2.553,1.182-5.129,1.67-7.716,1.979,3.519,3.747,7.147,5.553,10.756,3.527,7.047,6.9,14.167,10.223,21.314.072.153.136.31.22.5l-.671.051a1.084,1.084,0,0,1-.791.183c-1.5.008-2.991,0-4.487,0a1.629,1.629,0,0,1-.865-.187c-.817-.007-1.634-.04-2.45-.01a1.473,1.473,0,0,1-1.147-.434,122.79,122.79,0,0,1-10.365-10.682C-3448.606-874.567-3448.715-874.822-3448.988-874.9Z" transform="translate(3514.679 970.329)" fill="#003865"/>
        <path id="Path_6244" data-name="Path 6244" d="M-3792.243-1448.046c.06.456-.017.581-.52.364-1.427-.614-2.884-1.158-4.329-1.729-.378-.063-.5-.379-.636-.667a10.149,10.149,0,0,1-.856-3.032c-.076-.579.048-.733.641-.786.429-.038.851-.123,1.281-.155a1.38,1.38,0,0,0,1.251-.965,8.31,8.31,0,0,0,.447-1.944,23.136,23.136,0,0,0-.24-7.12,3.858,3.858,0,0,0-.6-1.553c-.359-.517-.559-.56-1.027-.124-.867.806-1.71,1.639-2.515,2.506a24.5,24.5,0,0,0-3.36,4.4,7.779,7.779,0,0,0-1.111,5.621,13.518,13.518,0,0,1,.068,3.09.87.87,0,0,1-.323.8c-2.168.5-4.334,1.005-6.505,1.491a17.485,17.485,0,0,0-3.493,1.057,3.729,3.729,0,0,0-1.714,1.583q-.793,1.359-1.59,2.716c-.1.163-.158.359-.365.429.661-2.666.966-5.411,1.795-8.04a17.771,17.771,0,0,1,1.289-2.659c2.188-4.305,4.385-8.608,6.19-13.095a7.691,7.691,0,0,1,4.051-4.144,13.407,13.407,0,0,1,8.373-.951,3.357,3.357,0,0,1,2.6,2.468,10.4,10.4,0,0,1,.606,3.672c.006,3.939.019,7.878.214,11.813C-3792.542-1451.345-3792.456-1449.69-3792.243-1448.046Z" transform="translate(3835.713 1471.223)" fill="#032d52"/>
        <path id="Path_6245" data-name="Path 6245" d="M-3686.153-871.494q-.308,2.132-.616,4.263c-.107-.068-.143.008-.194.084-2.952,4.338-7.2,6.741-12.133,8.13a41.172,41.172,0,0,1-5.278,1.1c-.205.124-.453-.02-.658.1-.036,0-.072,0-.107-.006a49.507,49.507,0,0,0-1.583-4.81,63.579,63.579,0,0,0-4.9-9.538c-.045-.073-.079-.152-.118-.228.277-.2.586-.1.877-.07,2.249.219,4.5.4,6.757.529q7.032.391,14.072.367c1.013,0,2.015-.208,3.031-.133C-3686.708-871.683-3686.393-871.739-3686.153-871.494Z" transform="translate(3743.43 949.998)" fill="#6f8fb8"/>
        <path id="Path_6246" data-name="Path 6246" d="M-3848.169-757.762a13.784,13.784,0,0,1,1.7.142,11.539,11.539,0,0,0,2.961-.012,1.209,1.209,0,0,0-.135.748c0,5.124.008,10.248-.011,15.372,0,.536.147.69.686.688,5.082-.019,10.165-.013,15.247-.01,1.242,0,1.835.581,1.794,1.733a1.352,1.352,0,0,1-1.509,1.37h-30.43q-3.618,0-7.237,0a1.416,1.416,0,0,1-1.55-1.295,1.611,1.611,0,0,1,1.44-1.8,5.674,5.674,0,0,1,.581-.006c5.255,0,10.51-.006,15.765.009.5,0,.716-.087.714-.66C-3848.175-746.911-3848.167-752.337-3848.169-757.762Z" transform="translate(3878.295 850.092)" fill="#cad0d9"/>
        <path id="Path_6247" data-name="Path 6247" d="M-3914.13-1163.2c-.1.043-.174.082-.276-.027-1.364-1.475-2.736-2.943-4.1-4.418a1.218,1.218,0,0,1-.157-.339,14.294,14.294,0,0,1,8.268-5.147,9.975,9.975,0,0,1-.87,2.255,69.093,69.093,0,0,0-2.794,7.3A3.416,3.416,0,0,0-3914.13-1163.2Z" transform="translate(3923.573 1211.708)" fill="#6f8fb8"/>
        <path id="Path_6248" data-name="Path 6248" d="M-3497.6-689.261a13.939,13.939,0,0,1,3.509,3.005,8.96,8.96,0,0,1,1.492,2.911.575.575,0,0,1-.009.54c-1.086-.5-2.177-.994-3.265-1.5-1.914-.884-3.821-1.782-5.742-2.65a.674.674,0,0,1-.481-.833c.171-1.038.307-2.083.457-3.124a.606.606,0,0,1,.5.006A11.142,11.142,0,0,1-3497.6-689.261Z" transform="translate(3560.925 791.935)" fill="#737b84"/>
        <path id="Path_6249" data-name="Path 6249" d="M-3314.331-628.366a14.11,14.11,0,0,1,4,1.158,8.247,8.247,0,0,1,2.913,2.364c-.134.22-.324.133-.476.133-3.18.006-6.36-.007-9.539.017a.657.657,0,0,1-.747-.582c-.285-.987-.609-1.964-.916-2.944a.923.923,0,0,1,.8-.331c1.119-.034,2.239-.02,3.358-.009A1.143,1.143,0,0,1-3314.331-628.366Z" transform="translate(3401.599 737.622)" fill="#737b84"/>
        <path id="Path_6251" data-name="Path 6251" d="M-3496.95-709.03a26.659,26.659,0,0,0-4.039-1.648q-.189-1.495-.379-2.991c1.762.242,3.521.5,5.26.876Q-3496.529-710.912-3496.95-709.03Z" transform="translate(3560.281 811.705)" fill="#c8735f"/>
        <path id="Path_6252" data-name="Path 6252" d="M-3329.832-641.612c-1.147,0-2.3.006-3.443,0a5.609,5.609,0,0,0-1.325.148,32.563,32.563,0,0,1-2.3-2.321h6.143Z" transform="translate(3417.101 750.867)" fill="#c8735f"/>
        <path id="Path_6253" data-name="Path 6253" d="M-3474.51-1052.742a40.363,40.363,0,0,0-5.178.4c-.046-.019-.066-.044-.061-.076s.014-.053.027-.053c-.061-.354-.115-.71-.187-1.062-.045-.216-.085-.42.108-.587a9.418,9.418,0,0,0,2-.692,1.227,1.227,0,0,1,1.523.165,7.41,7.41,0,0,0,1.083.8A1.371,1.371,0,0,1-3474.51-1052.742Z" transform="translate(3541.63 1108.859)" fill="#c8735f"/>
        <path id="Path_6254" data-name="Path 6254" d="M-3659.894-759.7c.2-.174.433-.106.657-.1C-3659.432-759.622-3659.668-759.7-3659.894-759.7Z" transform="translate(3698.292 851.884)" fill="#afcbdf"/>
        <path id="Path_6255" data-name="Path 6255" d="M-3765.192-990.368c-3.007.107-6.017.155-9.024.088-3.519-.079-7.038-.194-10.552-.4a54.5,54.5,0,0,1-6.012-.594,174.82,174.82,0,0,0-11.382-16.026c-.132-.167-.245-.35-.366-.526a.982.982,0,0,1,.891-1.072,17.764,17.764,0,0,1,3.713-.133,4.724,4.724,0,0,1,1.314.277c2.708.1,5.417.174,8.124.306,3.328.161,6.662.225,9.985.494,1.73.628,3.517,1.067,5.291,1.542a84.192,84.192,0,0,1,10.257,3.58c.307.126.428.269.347.617-.9,3.876-1.748,7.763-2.507,11.668A.834.834,0,0,1-3765.192-990.368Z" transform="translate(3822.468 1068.871)" fill="#003865"/>
        <path id="Path_6242" data-name="Path 6242" d="M-3494.671-1221.182l18.283-.014q3.973,0,7.947,0h.683c-1.879,6.583-3.74,13.1-5.6,19.62a.911.911,0,0,1-.78.217q-12.508.007-25.015,0c-.939,0-1.1-.24-.843-1.156q2.4-8.7,4.768-17.4C-3495.109-1220.36-3495.108-1220.873-3494.671-1221.182Z" transform="translate(3559.182 1257.553)" fill="#2c3e50"/>
        <path id="Path_6256" data-name="Path 6256" d="M-3712.61-1416.627a10.939,10.939,0,0,0,.022-4.362,7.36,7.36,0,0,1,1.006-4.887,27.3,27.3,0,0,1,5.03-6.274c.458-.454.959-.865,1.414-1.323.28-.282.453-.2.667.068a5.153,5.153,0,0,1,1.009,2.545,22.416,22.416,0,0,1-.046,7.7,6.52,6.52,0,0,1-.318,1.045,1.377,1.377,0,0,1-1.319.959c-.514.022-1.026.1-1.541.136-.2.014-.344.041-.309.287a8.207,8.207,0,0,0,1.37,4.035c.8,2.1.347,2.934-1.851,3.325C-3710.122-1412.9-3711.45-1413.634-3712.61-1416.627Z" transform="translate(3744.247 1438.512)" fill="#c8735f"/>
        <path id="Path_6257" data-name="Path 6257" d="M-3792.418-1164.014a39.617,39.617,0,0,0-5.168.026.585.585,0,0,1-.079-.609,52.908,52.908,0,0,1,2-5.709c.406-.445.306-1.108.673-1.57l1.54-.516a6.193,6.193,0,0,1,.913,1.071,4.954,4.954,0,0,0,.476.524c.341.286.663.669,1.184.4a1.369,1.369,0,0,0,.8-1.578c-.106-.46-.232-.917-.343-1.376a1.072,1.072,0,0,0-.891-.885,5.118,5.118,0,0,1-1.715-.713c-.314-.475-.927-.347-1.324-.655a15.837,15.837,0,0,0-.388-5.049q-.385-2.22-.9-4.419a7.352,7.352,0,0,1-.129-.889c.246-.323.5-.64.736-.972.439-.625.789-.629,1.228-.016a20.306,20.306,0,0,1,1.872,3.527,64.328,64.328,0,0,1,3.013,8.344,8.737,8.737,0,0,1-.578,6.18,13.108,13.108,0,0,1-2.983,4.608C-3792.681-1164.1-3792.43-1164.105-3792.418-1164.014Z" transform="translate(3818.275 1224.134)" fill="#aab2bb"/>
        <path id="Path_6258" data-name="Path 6258" d="M-3611.923-1092.3c-1.706.432-3.415.848-5.116,1.3-2.012.535-4.016,1.1-6.023,1.651a7.241,7.241,0,0,0-.716-1.5,16.785,16.785,0,0,1-1.117-8.578c.089-.943.315-1.857.432-2.792.384.035.367.36.423.612a13.322,13.322,0,0,0,.745,2.393,5.556,5.556,0,0,0,2.557,2.791,28.257,28.257,0,0,0,6.824,2.267,3.55,3.55,0,0,1,1.23.344C-3612.361-1093.347-3611.871-1092.961-3611.923-1092.3Z" transform="translate(3667.923 1149.977)" fill="#6f8fb8"/>
        <path id="Path_6259" data-name="Path 6259" d="M-3854.022-1072.011c-.678,1.919-1.458,3.8-1.981,5.776a5.214,5.214,0,0,0-.089.564c-.527.071-.473.624-.75.9-1.441-1.744-2.873-3.5-4.329-5.228-1.141-1.358-2.317-2.687-3.467-4.038-.1-.121-.379-.177-.24-.44a19.541,19.541,0,0,0,7.355,1.277,24.351,24.351,0,0,0,3.891-.36C-3853.512-1072.979-3853.888-1072.525-3854.022-1072.011Z" transform="translate(3876.781 1125.818)" fill="#6f8fb8"/>
        <path id="Path_6260" data-name="Path 6260" d="M-3609.055-1156.368c-1.667-.391-3.34-.752-4.968-1.294a28.119,28.119,0,0,1-2.643-1.019,6.492,6.492,0,0,1-3.632-4.567,4.117,4.117,0,0,0-.492-1.634c.836-3.088,1.859-6.129,2.412-9.314.01.171.029.342.029.514,0,2.044-.037,4.089.023,6.132a20.6,20.6,0,0,0,.328,3.248,5.962,5.962,0,0,0,3.408,4.326,40.208,40.208,0,0,0,9.047,3.091,28.747,28.747,0,0,0,3.2.641l.033.13-2.077.376a28.108,28.108,0,0,1-3.567-.327A2.817,2.817,0,0,1-3609.055-1156.368Z" transform="translate(3664.248 1212.633)" fill="#aab2bb"/>
        <path id="Path_6261" data-name="Path 6261" d="M-3823.615-1176.243a7,7,0,0,1,.627,2.32,57.034,57.034,0,0,1,1.022,5.859,17.8,17.8,0,0,1,.023,1.866.29.29,0,0,1-.26.312,48.283,48.283,0,0,0-7.5-2.011C-3827.7-1170.751-3825.684-1173.516-3823.615-1176.243Z" transform="translate(3846.124 1214.417)" fill="#6f8fb8"/>
        <path id="Path_6262" data-name="Path 6262" d="M-3764.385-1091.147c.793.085,1.454.6,2.25.685a.312.312,0,0,1,.193.161,5.383,5.383,0,0,1,.72,2.814,1.3,1.3,0,0,1-2.191.713,5.483,5.483,0,0,1-1.4-1.815Z" transform="translate(3789.63 1140.333)" fill="#c8735f"/>
        <path id="Path_6250" data-name="Path 6250" d="M-3548.407-1221.266q-1.8,6.551-3.6,13.1c-.535,1.947-1.051,3.9-1.6,5.839-.14.489-.124.683.476.682q13.021-.028,26.042-.018c.123.544-.1.683-.641.682q-13.27-.024-26.54-.011c-.279,0-.559.011-.838.017-2.021-.006-4.041-.005-6.061-.026-.248,0-.668.2-.652-.341.015-.477.394-.306.629-.307,2.107-.008,4.213.007,6.321,0,.219,0,.476.112.659-.12.775-2.785,1.557-5.569,2.325-8.356q1.468-5.33,2.914-10.666C-3548.9-1221.094-3548.833-1221.385-3548.407-1221.266Z" transform="translate(3612.918 1257.637)" fill="#b9bfc7"/>
        <path id="Path_6263" data-name="Path 6263" d="M-3780.743-1066.291q.2-.773.393-1.546c.043-.089.086-.089.13,0a5.473,5.473,0,0,1-.415,1.561c0,.011-.036.022-.054.019S-3780.725-1066.279-3780.743-1066.291Z" transform="translate(3803.502 1120.098)" fill="#afbac9"/>
        <path id="Path_6264" data-name="Path 6264" d="M-3530.108-1036.44a46.314,46.314,0,0,1,4.673.631l-3.867.779Z" transform="translate(3585.302 1092.706)" fill="#fbfbfc"/>
        <path id="Path_6265" data-name="Path 6265" d="M-3376.361-1156.436a1.083,1.083,0,0,1,1.162,1.156,2.069,2.069,0,0,1-1.921,1.966,1.121,1.121,0,0,1-1.144-1.258A1.946,1.946,0,0,1-3376.361-1156.436Z" transform="translate(3453.108 1201.172)" fill="#d1daec"/>
      </g>
    </g>
  </g>
</svg>
