<svg xmlns="http://www.w3.org/2000/svg" width="577" height="359.072" viewBox="0 0 577 359.072">
  <g id="Student-engagement-with-your-future-workforce" transform="translate(-99 -2587.5)">
    <ellipse id="Ellipse_473" data-name="Ellipse 473" cx="56.5" cy="4" rx="56.5" ry="4" transform="translate(563 2935.572)" fill="#f5f5f5" opacity="0.1"/>
    <path id="Path_6675" data-name="Path 6675" d="M51.845,17.937a13.3,13.3,0,0,1-2.228-4.72,2.106,2.106,0,0,0-2.12-.955c-1.27-.169-2.2-1.072-3.326-1.547-1.7,3.009-3.422,6.007-5.089,9.035-.646,1.174-1.232,1.451-2.627.822-6.2-2.8-12.764-4.648-19.067-7.188-1.161-.468-2.313-.957-3.476-1.42a7.941,7.941,0,0,1-4.29-3.846C7.966,4.925,6.281,1.733,2.478.539A4.082,4.082,0,0,0,0,.075C.217,1.1,1.035,1.549,1.691,2.085c.783.64,1.689,1.129,2.471,1.77C4.8,4.382,5.572,5.1,5.319,5.921c-.193.627-1.172.269-1.786.272-1.9.011-2.611.551-2.326,2.745.183,1.406-.252,2.794.854,4.071A10.417,10.417,0,0,0,6.9,16.24a3.046,3.046,0,0,0,1.742.224c2.384-.87,4.094.524,5.94,1.564,7.222,4.07,14.357,8.3,21.786,11.992,2.983,1.483,3.552,1.389,6.006-.9A79.692,79.692,0,0,0,51.845,17.937Z" transform="matrix(0.914, 0.407, -0.407, 0.914, 154.093, 2714.176)" fill="#c8735f"/>
    <g id="undraw_status_update_jjgk" transform="translate(99 2587.5)">
      <path id="Path_6501" data-name="Path 6501" d="M954.712,682.17s-6.836-4.511-13.611-1.307c0,0,2.086,4.022,10.663,3.638Z" transform="translate(-437.955 -375.712)" fill="#6c63ff"/>
      <path id="Path_6502" data-name="Path 6502" d="M963.463,684.56s2.08,7.921-3.132,13.311c0,0-3.137-3.265-.028-11.264Z" transform="translate(-445.866 -377.862)" fill="#6c63ff"/>
      <path id="Path_6503" data-name="Path 6503" d="M969.87,666.935s-.506-6.736-15.72-4.506c0,0-.067,4.35,5.273,6.408S967.205,669.16,969.87,666.935Z" transform="translate(-443.745 -367.841)" fill="#6c63ff"/>
      <path id="Path_6504" data-name="Path 6504" d="M980.531,670.81s6.43,2.064.7,16.332c0,0-4.239-.946-5.006-6.625S977.745,672.874,980.531,670.81Z" transform="translate(-453.473 -371.761)" fill="#6c63ff"/>
      <path id="Path_6505" data-name="Path 6505" d="M987.845,645.62s.873-11.086-14.674-9.946c0,0-1.112,10.013,11.932,12.616Z" transform="translate(-452.176 -356.133)" fill="#6c63ff"/>
      <path id="Path_6537" data-name="Path 6537" d="M664.843,150.55V438.924c0,8.572-8.271,15.575-18.484,15.575H255.1c-10.213,0-18.484-6.975-18.484-15.575V150.55c0-8.589,8.272-17.35,18.484-17.35l391.232.951C656.549,134.151,664.843,141.989,664.843,150.55Z" transform="translate(-125.346 -133.2)" fill="#fff"/>
      <path id="Path_6538" data-name="Path 6538" d="M664.843,150.639v13.35H236.62v-13.35A17.439,17.439,0,0,1,254.075,133.2H647.41a17.439,17.439,0,0,1,17.433,17.439Z" transform="translate(-125.346 -133.2)" fill="#d5d9e0"/>
      <circle id="Ellipse_460" data-name="Ellipse 460" cx="6.163" cy="6.163" r="6.163" transform="translate(125.859 9.228)" fill="#fff" opacity="0.8"/>
      <circle id="Ellipse_461" data-name="Ellipse 461" cx="6.163" cy="6.163" r="6.163" transform="translate(143.787 9.228)" fill="#fff" opacity="0.8"/>
      <circle id="Ellipse_462" data-name="Ellipse 462" cx="6.163" cy="6.163" r="6.163" transform="translate(161.715 9.228)" fill="#fff" opacity="0.8"/>
      <g id="Group_1582" data-name="Group 1582" transform="translate(235.477 124.722)" opacity="0.2">
        <path id="Path_6539" data-name="Path 6539" d="M618.238,321.5v31.15c0,.929-1.741,1.669-3.894,1.669h-82.17c-2.147,0-3.894-.751-3.894-1.669V321.5c0-.929,1.735-1.875,3.894-1.875h82.17C616.5,319.624,618.238,320.57,618.238,321.5Z" transform="translate(-528.28 -319.63)" fill="#d5d9e0"/>
      </g>
      <rect id="Rectangle_1381" data-name="Rectangle 1381" width="42.81" height="1.513" transform="translate(274.965 135.842)" fill="#a0a0a0"/>
      <rect id="Rectangle_1382" data-name="Rectangle 1382" width="42.81" height="1.513" transform="translate(274.965 139.524)" fill="#a0a0a0" opacity="0.2"/>
      <rect id="Rectangle_1383" data-name="Rectangle 1383" width="42.81" height="1.513" transform="translate(274.965 143.207)" fill="#a0a0a0" opacity="0.2"/>
      <rect id="Rectangle_1384" data-name="Rectangle 1384" width="42.81" height="1.513" transform="translate(274.965 146.895)" fill="#a0a0a0" opacity="0.2"/>
      <g id="Group_1583" data-name="Group 1583" transform="translate(186.059 212.752)" opacity="0.2">
        <path id="Path_6541" data-name="Path 6541" d="M444.828,431.175v31.15c0,.923-1.736,1.669-3.894,1.669h-82.17c-2.147,0-3.894-.756-3.894-1.669v-31.15c0-.929,1.736-1.875,3.894-1.875h82.181C443.092,429.3,444.828,430.246,444.828,431.175Z" transform="translate(-354.87 -429.3)" fill="#d5d9e0"/>
      </g>
      <rect id="Rectangle_1385" data-name="Rectangle 1385" width="42.81" height="1.513" transform="translate(225.542 223.877)" fill="#a0a0a0"/>
      <path id="Path_6542" data-name="Path 6542" d="M378.819,443.33a10.152,10.152,0,0,0-5.6,18.623v-.679a2.3,2.3,0,0,1,2.03-2.281,4.027,4.027,0,0,0,7.065,0,2.3,2.3,0,0,1,2.03,2.281V462a10.152,10.152,0,0,0-5.529-18.668ZM382.8,456.2a4.022,4.022,0,0,1-8.027,0,4.423,4.423,0,0,1,2.309-5.9,1.33,1.33,0,0,1-.212-.723,1.346,1.346,0,0,1,1.341-1.346h.1a1.34,1.34,0,0,0-1.074,2h.044a1.353,1.353,0,0,1,0-.261,1.969,1.969,0,0,1,1.535-1.73h.05a1.346,1.346,0,0,0-1.023.6,1.329,1.329,0,0,1,.734-.223,1.346,1.346,0,0,1,1.346,1.346,1.37,1.37,0,0,1,0,.15,4.406,4.406,0,0,1,2.87,6.119Z" transform="translate(-174.932 -222.774)" fill="#a0a0a0" opacity="0.2"/>
      <rect id="Rectangle_1386" data-name="Rectangle 1386" width="42.81" height="1.513" transform="translate(225.542 227.559)" fill="#a0a0a0" opacity="0.2"/>
      <rect id="Rectangle_1387" data-name="Rectangle 1387" width="42.81" height="1.513" transform="translate(225.542 231.242)" fill="#a0a0a0" opacity="0.2"/>
      <rect id="Rectangle_1388" data-name="Rectangle 1388" width="42.81" height="1.513" transform="translate(225.542 234.924)" fill="#a0a0a0" opacity="0.2"/>
      <g id="Group_1584" data-name="Group 1584" transform="translate(149.868 52.91)">
        <path id="Path_6543" data-name="Path 6543" d="M404.947,253.585v31.15c0,.923-1.735,1.669-3.894,1.669H318.894c-2.142,0-3.894-.756-3.894-1.669v-31.15c0-.929,1.741-1.875,3.894-1.875h82.17C403.211,251.71,404.947,252.656,404.947,253.585Z" transform="translate(-315 -251.71)" fill="#f6f7f8"/>
      </g>
      <g id="Group_1595" data-name="Group 1595" transform="translate(413.11 60.917)">
        <path id="Path_6543-2" data-name="Path 6543" d="M404.947,253.585v31.15c0,.923-1.735,1.669-3.894,1.669H318.894c-2.142,0-3.894-.756-3.894-1.669v-31.15c0-.929,1.741-1.875,3.894-1.875h82.17C403.211,251.71,404.947,252.656,404.947,253.585Z" transform="translate(-315 -251.71)" fill="#f6f7f8"/>
      </g>
      <rect id="Rectangle_1389" data-name="Rectangle 1389" width="42.81" height="1.513" transform="translate(189.34 64.035)" fill="#a0a0a0"/>
      <rect id="Rectangle_1409" data-name="Rectangle 1409" width="42.81" height="1.513" transform="translate(452.582 72.043)" fill="#a0a0a0"/>
      <rect id="Rectangle_1390" data-name="Rectangle 1390" width="42.81" height="1.513" transform="translate(189.34 67.718)" fill="#a0a0a0" opacity="0.2"/>
      <rect id="Rectangle_1410" data-name="Rectangle 1410" width="42.81" height="1.513" transform="translate(452.582 75.725)" fill="#a0a0a0" opacity="0.2"/>
      <rect id="Rectangle_1391" data-name="Rectangle 1391" width="42.81" height="1.513" transform="translate(189.34 71.4)" fill="#a0a0a0" opacity="0.2"/>
      <rect id="Rectangle_1411" data-name="Rectangle 1411" width="42.81" height="1.513" transform="translate(452.582 79.407)" fill="#a0a0a0" opacity="0.2"/>
      <rect id="Rectangle_1392" data-name="Rectangle 1392" width="42.81" height="1.513" transform="translate(189.34 75.082)" fill="#a0a0a0" opacity="0.2"/>
      <rect id="Rectangle_1412" data-name="Rectangle 1412" width="42.81" height="1.513" transform="translate(452.582 83.09)" fill="#a0a0a0" opacity="0.2"/>
      <path id="Path_6544" data-name="Path 6544" d="M338.936,265.74a10.157,10.157,0,0,0-5.563,18.624v-1.719a2.308,2.308,0,0,1,2.03-2.286,4.027,4.027,0,0,0,7.064,0,2.3,2.3,0,0,1,2.03,2.286V284.4a10.152,10.152,0,0,0-5.563-18.662Zm4.45,12.393a.684.684,0,0,1-.134.172.556.556,0,0,1-.295.1h-.206a4.033,4.033,0,0,1-7.893-1.146,3.973,3.973,0,0,1,.529-1.981l-.045-.027a1.341,1.341,0,0,1,.133-1.863,2.681,2.681,0,0,1,.834-.306,3.727,3.727,0,0,0,2.114-1.619,4.45,4.45,0,0,1,0,.612.9.9,0,0,1,1.274-.044,2.555,2.555,0,0,0,.362.412,1.112,1.112,0,0,0,.451.128l1.012.128a1.936,1.936,0,0,1,1.151.417,1.826,1.826,0,0,1,.384.679,10.149,10.149,0,0,1,.662,2.142,3.432,3.432,0,0,1-.306,2.186Z" transform="translate(-171.267 -205.026)" fill="#a0a0a0" opacity="0.2"/>
      <path id="Path_6551" data-name="Path 6551" d="M403.413,715.463a3.665,3.665,0,0,0,2.987,2.281,32.048,32.048,0,0,1-2.125-3.1l.039-5.485A9.668,9.668,0,0,1,407.4,701h0s-4.127.284-4.239,6.9S403.413,715.463,403.413,715.463Z" transform="translate(-199.239 -385.157)" opacity="0.05"/>
      <g id="Group_1589" data-name="Group 1589" transform="translate(373.49 150.925)" opacity="0.2">
        <path id="Path_6589" data-name="Path 6589" d="M842.98,267.845v31.15c0,.929-1.735,1.669-3.894,1.669H756.894c-2.147,0-3.894-.751-3.894-1.669v-31.15c0-.929,1.736-1.875,3.894-1.875h82.2C841.245,265.987,842.98,266.916,842.98,267.845Z" transform="translate(-753 -265.97)" fill="#d5d9e0"/>
      </g>
      <rect id="Rectangle_1401" data-name="Rectangle 1401" width="42.81" height="1.513" transform="translate(412.996 162.05)" fill="#a0a0a0"/>
      <rect id="Rectangle_1402" data-name="Rectangle 1402" width="42.81" height="1.513" transform="translate(412.996 165.732)" fill="#a0a0a0" opacity="0.2"/>
      <rect id="Rectangle_1403" data-name="Rectangle 1403" width="42.81" height="1.513" transform="translate(412.996 169.415)" fill="#a0a0a0" opacity="0.2"/>
      <rect id="Rectangle_1404" data-name="Rectangle 1404" width="42.81" height="1.513" transform="translate(412.996 173.097)" fill="#a0a0a0" opacity="0.2"/>
      <path id="Path_6590" data-name="Path 6590" d="M776.976,280a10.152,10.152,0,0,0-5.613,18.623V296.9a2.314,2.314,0,0,1,2.03-2.286,4.027,4.027,0,0,0,7.064,0,2.314,2.314,0,0,1,2.03,2.286v1.763A10.152,10.152,0,0,0,776.976,280Zm4.45,12.388a.44.44,0,0,1-.428.273,1.279,1.279,0,0,1-.206,0,4.027,4.027,0,0,1-7.888-1.146,3.982,3.982,0,0,1,.523-1.98l-.045-.028a1.346,1.346,0,0,1,.134-1.863,2.731,2.731,0,0,1,.834-.306,3.7,3.7,0,0,0,2.114-1.613,3.778,3.778,0,0,1,0,.612.9.9,0,0,1,1.274-.044c.128.128.211.306.367.406a.963.963,0,0,0,.451.128l1.007.133a1.424,1.424,0,0,1,1.535,1.113,9.73,9.73,0,0,1,.662,2.142,3.382,3.382,0,0,1-.323,2.181Z" transform="translate(-385.635 -121.271)" fill="#a0a0a0" opacity="0.2"/>
      <path id="Path_6640" data-name="Path 6640" d="M126.543,303.755V334.9c0,.929-1.741,1.669-3.894,1.669H40.474c-2.147,0-3.894-.751-3.894-1.669v-31.15c0-.929,1.736-1.875,3.894-1.875h82.187C124.8,301.88,126.543,302.826,126.543,303.755Z" transform="translate(-36.58 -211.053)" fill="#fff"/>
      <rect id="Rectangle_1405" data-name="Rectangle 1405" width="42.81" height="1.513" transform="translate(39.489 101.952)" fill="#a0a0a0"/>
      <path id="Path_6642" data-name="Path 6642" d="M60.536,315.92a10.152,10.152,0,0,0-5.6,18.618v-.679a2.3,2.3,0,0,1,2.03-2.281,4.027,4.027,0,0,0,7.064,0,2.3,2.3,0,0,1,2.03,2.281v.723a10.152,10.152,0,0,0-5.529-18.662Zm3.977,12.866a4.022,4.022,0,0,1-8.021,0,4.406,4.406,0,0,1,2.308-5.9,1.291,1.291,0,0,1-.217-.723,1.341,1.341,0,0,1,1.346-1.341h.095a1.341,1.341,0,0,0-1.246,1.341,1.285,1.285,0,0,0,.178.662h.039a1.346,1.346,0,0,1,0-.261,1.972,1.972,0,0,1,1.535-1.724h.095a1.346,1.346,0,0,0-1.024.6,1.341,1.341,0,0,1,2.08,1.112,1.363,1.363,0,0,1,0,.15,4.405,4.405,0,0,1,2.87,6.091Z" transform="translate(-42.708 -217.284)" fill="#a0a0a0" opacity="0.2"/>
      <rect id="Rectangle_1406" data-name="Rectangle 1406" width="42.81" height="1.513" transform="translate(39.489 105.634)" fill="#a0a0a0" opacity="0.2"/>
      <rect id="Rectangle_1407" data-name="Rectangle 1407" width="42.81" height="1.513" transform="translate(39.489 109.317)" fill="#a0a0a0" opacity="0.2"/>
      <rect id="Rectangle_1408" data-name="Rectangle 1408" width="42.81" height="1.513" transform="translate(39.489 112.999)" fill="#a0a0a0" opacity="0.2"/>
      <path id="Path_6669" data-name="Path 6669" d="M226.23,443.58a1.051,1.051,0,0,1-.8-.2q-1.758-1-3.471-2.1a21.057,21.057,0,0,1-3.393-2.347C220.9,441.038,223.07,442.818,226.23,443.58Z" transform="translate(-117.337 -268.866)" opacity="0.1"/>
      <g id="Symbols" transform="matrix(0.985, -0.174, 0.174, 0.985, 489.887, 129.434)">
        <g id="Head_Front_Caesar" data-name="Head/Front/Caesar" transform="translate(0 0)">
          <g id="Head" transform="translate(0 1.172)">
            <path id="Path_6682" data-name="Path 6682" d="M19.773,20.214c2.7-3.17,4.528-7.055,4.223-11.408C23.115-3.736,5.656-.977,2.26,5.353S-.732,27.74,3.657,28.872c1.75.451,5.479-.654,9.274-2.942L10.549,42.783H24.615Z" transform="translate(0 0)" fill="#d4a181" fill-rule="evenodd"/>
          </g>
          <path id="Combined-Shape" d="M13.052,14.574a2.82,2.82,0,0,1,1.6-.508A3.018,3.018,0,0,1,17.582,17a3.479,3.479,0,0,1-1.774,3.251c.557,1.089,1.118,1.88,1.774,2.024,2.533-.256,5.861-6.552,5.861-11.721C23.443,4.891,18.941,0,10.549,0,3.007,0,.147,3.11,0,5.861c3.232.888,8.879,1.23,17,1.172v.586L9.963,8.2,8.791,11.721C10.656,11.582,11.988,12.861,13.052,14.574Z" transform="translate(2.344 0)" fill="#191847" fill-rule="evenodd"/>
        </g>
      </g>
      <g id="humaaans_standing-3" data-name="humaaans/standing-3" transform="translate(441.405 152.882)">
        <g id="humaaan-12" transform="translate(0 0)">
          <g id="Bottom_Standing_Sweatpants" data-name="Bottom/Standing/Sweatpants" transform="translate(37.014 63.711)">
            <path id="Leg" d="M173.82,0,153.058,71.545l-9.766,53.717h-9.8L143.275,0Z" transform="translate(-111.472 0)" fill="#ba8b72" fill-rule="evenodd"/>
            <path id="Leg-2" data-name="Leg" d="M126.379,0c-1.449,37.167-.877,57.439-.553,60.816s2.165,25.992,14.708,65.58H130.34c-16.612-37.977-22.411-60.593-24.316-65.58S98.492,35.557,90.277,0Z" transform="translate(-54.7)" fill="#d4a181" fill-rule="evenodd"/>
            <path id="Pant" d="M175.182,0q-8.1,36.928-28.022,117.894H132.824C131.765,62.491,136.269,26.028,144.07,0Z" transform="translate(-112.388 0)" fill="#b4bac4" fill-rule="evenodd"/>
            <path id="Pant-2" data-name="Pant" d="M129.446,0c-1.419,37.167,2.258,73.784,13.648,118.472H127.8A502.074,502.074,0,0,1,91.077,0Z" transform="translate(-57.695)" fill="#d5d9e0" fill-rule="evenodd"/>
            <g id="Accessories_Shoe_Flat-Simple" data-name="Accessories/Shoe/Flat-Simple" transform="translate(53.279 123.562)">
              <path id="Shoe" d="M34.008,30.017l-.562-9.069q-4.94,1.445-12.375-1.134Q13.076,25.478.943,27.548a1.134,1.134,0,0,0-.9,1.427l.778,2.743H32.883Z" transform="translate(0 -19.815)" fill="#191847" fill-rule="evenodd"/>
            </g>
            <g id="Accessories_Shoe_Flat-Simple-2" data-name="Accessories/Shoe/Flat-Simple" transform="translate(0 123.562)">
              <path id="Shoe-2" data-name="Shoe" d="M34.008,30.017l-.562-9.069q-4.94,1.445-12.375-1.134Q13.076,25.478.943,27.548a1.134,1.134,0,0,0-.9,1.427l.778,2.743H32.883Z" transform="translate(0 -19.815)" fill="#191847" fill-rule="evenodd"/>
            </g>
          </g>
          <g id="Body_Pointing-Forward" data-name="Body/Pointing-Forward" transform="translate(114.304 80.844) rotate(170)">
            <path id="Skin" d="M0,17.763,19.673,28.538a48.667,48.667,0,0,0,9.67,9.052c.97.405,2.667.65,1.08-2.166s-3.129-5.85-2.321-6.718,2.824.344,3.789-1.1q.964-1.442-10.331-4.555L7.265,9.966ZM30.812,8.672l8.642,4.747q1.819,6.921,4.348,6.964c1.3.6-.961-5.227,1.5-4.722s8.45,4.964,9.483,4.058c1.528-1.339.166-5.451-1.44-7.5-3-3.823-5.484-5.13-11.624-6.842A33.752,33.752,0,0,1,31.3,0Z" transform="translate(46.145 40.125)" fill="#d4a181" fill-rule="evenodd"/>
            <path id="Sleeve" d="M3.12,13.807A48.34,48.34,0,0,1,29.9,17.414l2.46-9.084C24.629,2.759,14.374-1.2,6.2.332A7.512,7.512,0,0,0,3.12,13.807Z" transform="translate(35.642 46.163) rotate(9)" fill="#075e7c" fill-rule="evenodd"/>
            <path id="Clothes" d="M45.843,46.518q10.973-2.737,36.8,6.455,6.407-13.255,5.923-18.9C73.8,26.357,61.136,22.917,50.705,22.69A35.9,35.9,0,0,0,47.753,5.23C42.55-5.833,12.085,4.413,1.841,2.4c-6.415,20.832,5.988,29.3,6,42.628.011,14.6,11.732,37.067,13.457,37.067H37.023C37.891,70.943,42.258,58.656,45.843,46.518Z" transform="translate(0 0)" fill="#0077a0" fill-rule="evenodd"/>
          </g>
        </g>
      </g>
      <text id="_" data-name="&lt;/&gt;" transform="translate(243 147.072)" fill="#a0a0a0" font-size="15" font-family="Lato-Bold, Lato" font-weight="700"><tspan x="0" y="0">&lt;/&gt;</tspan></text>
      <text id="_2" data-name="&lt;/&gt;" transform="translate(419 84.072)" fill="#a0a0a0" font-size="15" font-family="Lato-Bold, Lato" font-weight="700"><tspan x="0" y="0">&lt;/&gt;</tspan></text>
    </g>
    <ellipse id="Ellipse_471" data-name="Ellipse 471" cx="51" cy="4" rx="51" ry="4" transform="translate(155 2912.572)" fill="#f5f5f5" opacity="0.1"/>
    <ellipse id="Ellipse_474" data-name="Ellipse 474" cx="21" cy="2" rx="21" ry="2" transform="translate(299 2934.572)" fill="#f5f5f5" opacity="0.1"/>
    <ellipse id="Ellipse_472" data-name="Ellipse 472" cx="85" cy="5" rx="85" ry="5" transform="translate(373 2936.572)" fill="#f5f5f5" opacity="0.1"/>
    <path id="Path_6670" data-name="Path 6670" d="M1533.079-671.019a103.557,103.557,0,0,0-7.221,26.94,140.641,140.641,0,0,0-1.377,20.25,3.439,3.439,0,0,0,.407,1.893,7.8,7.8,0,0,0,3.228,1.437,44.747,44.747,0,0,0,10.427,2.315c.586.053,1.185.233,1.706-.214l5.1.026c1.873.922,3.865.586,5.769.33,3.6-.483,7.159-1.222,10.745-1.8.652-2.769.579-5.622.965-8.425.547-3.98.842-8,1.408-11.973,1.295-9.095.053-17.632-5.338-25.288-.979-1.391-1.477-3.126-2.944-4.171a2.779,2.779,0,0,0-2.193-.518,116.586,116.586,0,0,1-18.682-1.125C1534.4-671.435,1533.656-671.678,1533.079-671.019Z" transform="translate(-1336.155 3443.2)" fill="#cad0d9"/>
    <g id="Group_1594" data-name="Group 1594" transform="translate(185.48 2724.432)">
      <g id="Group_117" data-name="Group 117" transform="translate(0 0)">
        <path id="Path_507" data-name="Path 507" d="M1521.042-789.123c.111-.165.223-.334.334-.5C1521.268-789.457,1521.157-789.288,1521.042-789.123Zm-.165.251c-1.781,2.7-3.324,5.474-2.818,8.964.467,1.748.88,3.525,2.6,4.559a6.98,6.98,0,0,1,2.627,5.033c.276,4.62,1.458,9.193.585,13.867a.875.875,0,0,0,.327.955,133.986,133.986,0,0,0,22.878,1.321,85.116,85.116,0,0,1,2.606-18.3,1.932,1.932,0,0,1,2.068-.977,9.351,9.351,0,0,0,5.55-.836,4.983,4.983,0,0,0,2.739-2.879c-.506-6.059-1.131-12.108-2.183-18.1-.352-1.989-1.68-3.22-3.152-4.376-2.481.984-4.778.319-7.258-.337-2.147-.567-4.387.635-6.5,1.432a13.961,13.961,0,0,1-4.573,3.331c-2.344.887-3.733.291-4.649-2.061a9.549,9.549,0,0,1-.6-3.493,3.368,3.368,0,0,0-.395-2.233c-1.511-.7-2.732.323-4.063.686-.9.574-2.172.477-2.836,1.511a11.115,11.115,0,0,0-5.855,6.228c-1.422,3.54-3.13,6.939-4.778,10.374-.237.5-.736,1.016-.212,1.633a3.562,3.562,0,0,0,3.267,1.7c.667-.42.786-1.163,1.044-1.816A32.572,32.572,0,0,1,1520.877-788.872Z" transform="translate(-1512.748 803.242)" fill="#009de0"/>
        <path id="Path_508" data-name="Path 508" d="M1620.438-764.8c.115-.165.226-.334.334-.5C1620.66-765.135,1620.549-764.966,1620.438-764.8Z" transform="translate(-1612.144 778.92)" fill="#009de0"/>
      </g>
    </g>
    <path id="Path_6671" data-name="Path 6671" d="M1539.207-528.428c-.657-.748-1.442-.312-2.166-.2-4.763.727-9.456,2.046-14.348,1.673.508,4.8.944,9.605,1.537,14.393,2.408,19.427,7.512,38.336,11.116,57.534.725,3.866,1.542,7.714,2.316,11.57,1.676.669,3.456.137,5.029-1.5-.453-8.761-.122-17.534-.4-26.3-.341-10.734-1.054-21.413-4.541-31.718-.483-1.427-.1-3.176,0-4.768C1538.214-514.641,1538.719-521.534,1539.207-528.428Z" transform="translate(-1313.494 3351.786)" fill="#c8735f"/>
    <path id="Path_6672" data-name="Path 6672" d="M1609.651-530.011a56.754,56.754,0,0,1-14.661-3.529,1.965,1.965,0,0,0-.7-.009c-.461,6.3-.912,12.6-1.389,18.9-.388,5.118-.286,10.239-.2,15.362.084,5.251.1,10.5.166,15.756.113,9.486.16,18.973.4,28.455.084,3.337.124,6.675.2,10.012a3.343,3.343,0,0,0,4.645.019q1.939-11.994,3.875-23.989a147.777,147.777,0,0,0,2.287-24.178,25.71,25.71,0,0,0-.323-4.274c-.793-4.533.184-8.833,1.294-13.2C1606.872-517.083,1608.2-523.564,1609.651-530.011Z" transform="translate(-1405.557 3354.814)" fill="#c8735f"/>
    <path id="Path_6673" data-name="Path 6673" d="M8.354,35.527a15.983,15.983,0,0,1,3.886-1.049,3.786,3.786,0,0,0,2.431-.379c.559-.239,1.106-.537,1.091-1.263-.013-.708-.517-1.042-1.1-1.257a13.991,13.991,0,0,1-4.736-2.8c-2.367-2.165-2.885-5.007-3.177-7.939-.183-1.838-.034-3.7-.056-5.546A1.388,1.388,0,0,1,8.01,13.709c.941-.149,1.848-.486,2.8-.57,1.985-.174,2.9.29,3.63,2.121a4.719,4.719,0,0,0,3.381,2.668c1.477.464,2.611,1.06,2.727,2.838.06.925.636,1.046,1.348.439.513-.437.909-1.278,1.778-.8a2.28,2.28,0,0,1,1.036,2.156c.016,1.716-.39,3.212-2.255,3.838a1.745,1.745,0,0,0-1.133,2.158c.115.947.275,1.891.331,2.843a2.86,2.86,0,0,1-1.444,3.013c-2.1,1.174-2.193,2.64-.3,4.127.8.626,1.682,1.171,2.766.573,1.547-.411,3.088-.847,4.643-1.223a3.443,3.443,0,0,1,2.787.124c2.2,1.572,4.217,1.112,6.241-.264,3.6-2.353,3.789-9.122.544-11.663-2.379-1.863-2.859-4.571-2.988-7.37a32.667,32.667,0,0,0-1.216-9C30.665,3.652,26.553.835,19.625.1c-3.282-.346-6.456.059-8.792,2.871a2.455,2.455,0,0,1-1.8.685A8.343,8.343,0,0,0,4.9,5.191c-3.112,2.121-3.4,4.452-.583,7.012a2.2,2.2,0,0,1,.728,2.823c-.867,2.455-.525,5.081-.851,7.621A9.526,9.526,0,0,1,1.824,28.3a7.615,7.615,0,0,0-.647.856C.072,30.711-.473,32.4.521,34.169a4.2,4.2,0,0,0,4.57,2.077C6.2,36.108,7.187,35.4,8.354,35.527Z" transform="matrix(0.996, 0.087, -0.087, 0.996, 194.033, 2688.651)" fill="#032d52"/>
    <path id="Path_6674" data-name="Path 6674" d="M1465.649-730.6c-2.428,3.155-5.7,3.771-9.39,3.107-1.754-.316-.608,1.081-.967,1.585,1.25,2.218,1.5,4.743,1.976,7.152,2.194,11.068,5.474,21.831,8.779,32.6a66.619,66.619,0,0,1,2.979,12.863,10.32,10.32,0,0,1-1.031,5.168c-.419,1.011-1.289,2.369-.137,3.087,1.362.849,2.014-.727,2.726-1.615,1.02-1.272,2.315-1.546,4.145-.7a18.994,18.994,0,0,0,10.209,2.088c.5-.056,1.184.155,1.337-.557.119-.551-.445-.769-.805-1.072-1.823-1.535-3.606-3.12-5.457-4.622-4.5-3.654-5.908-8.73-6.755-14.15-2.173-13.889-3.941-27.847-7.008-41.587C1466-728.359,1465.847-729.483,1465.649-730.6Z" transform="translate(-1232.884 3481.107)" fill="#c8735f"/>
    <path id="Path_6676" data-name="Path 6676" d="M1530.571-295.151c-1.642.616-3.139,1.717-5.029,1.5a47.458,47.458,0,0,1-8.089,6.388c-.534.345-1.234.709-1.139,1.463.105.84.971.955,1.591,1.254a2.925,2.925,0,0,0,1.925.075,15.122,15.122,0,0,0,4.048-1.343,21.356,21.356,0,0,1,6.008-2.127c1.248-.247,2.654-.546,2.928-2.175A5.527,5.527,0,0,0,1530.571-295.151Z" transform="translate(-1301.375 3201.975)" fill="#032d52"/>
    <path id="Path_6677" data-name="Path 6677" d="M1637.8-286.976a6.557,6.557,0,0,1-4.645-.019,5.316,5.316,0,0,0-1.383.267,29.946,29.946,0,0,1-7.455,2.43,14.346,14.346,0,0,0-2.509.92,1.211,1.211,0,0,0-.861,1.228,1.233,1.233,0,0,0,1.126,1.2,13.718,13.718,0,0,0,3.188.348,50.1,50.1,0,0,1,10.512.05c1.267.185,2.573.081,3.135-1.413A4.891,4.891,0,0,0,1637.8-286.976Z" transform="translate(-1445.246 3196.747)" fill="#032d52"/>
    <path id="Path_6678" data-name="Path 6678" d="M16.508,26.58a4.624,4.624,0,0,1-3.28-1.6c-.81-1.121-.628-2.254.6-2.557,2.1-.518,2.272-2.011,2.179-3.7a18.723,18.723,0,0,0-.345-2.477c-.21-1.1-.413-1.85,1.29-2.064,1.463-.184,1.876-1.855,2.091-3.242a3.475,3.475,0,0,0-1.231-3.685,1.121,1.121,0,0,0-1.725.223c-.349.463-.689.934-1.268,1.719A12.1,12.1,0,0,1,14.7,7.572,1.977,1.977,0,0,0,12.923,5.3c-2.169-.509-3.89-1.311-4.646-3.806C7.741-.273,5.8-.089,4.239.153A16.132,16.132,0,0,1,.745.809c-.72-.044-.692.473-.7.962A46.19,46.19,0,0,0,.47,11.229c.814,4.256,3.685,6.647,7.518,8.135.506.2,1.349-.031,1.344.851S8.5,21.1,7.915,21.321c-.608.228-1.231.415-1.848.619.061,2-.079,4.018.727,5.938,1.1,2.62,2.588,3.316,5.189,2.252A9.348,9.348,0,0,0,16.508,26.58Z" transform="matrix(0.996, 0.087, -0.087, 0.996, 199.091, 2701.678)" fill="#c8735f"/>
    <path id="Path_6679" data-name="Path 6679" d="M1617.541-759.055l2.121.955c-.518-4.321,2.181-7.4,3.989-10.873A21.58,21.58,0,0,0,1617.541-759.055Z" transform="translate(-1428.503 3505.706)" fill="#075a7e"/>
    <g id="Group_68" data-name="Group 68" transform="translate(407.082 2806.156)">
      <path id="Path_388" data-name="Path 388" d="M963.509,1574.921a13.68,13.68,0,0,0-1.763-.035,1.4,1.4,0,0,1-1.731-1.2,10.044,10.044,0,0,1-1.172-2.534,42.086,42.086,0,0,0-3.683-6.924,12.5,12.5,0,0,0-1.779-2.079,3.349,3.349,0,0,0-2.806-1.073c-1.156.048-2.311.025-3.466.02-.312,0-.649.034-.883-.258a26.476,26.476,0,0,1,4.548-1.9c4.287-1.647,8.713-2.848,13.131-4.075a2.259,2.259,0,0,1,1.21-.527,70.31,70.31,0,0,1,11.843-2.111,15.852,15.852,0,0,1,3.258-.145,4.783,4.783,0,0,0,1.331.1c2.456-.05,4.894.323,7.349.318a1.849,1.849,0,0,1,.933.216c-3.57-.994-6.727-2.306-8.089-6.005.008-.144-.027.035.043-.035.1.316.323.689-.306.68a10.894,10.894,0,0,0-1.311-4.585.988.988,0,0,0-1.159-.644c-1.87.167-3.741.36-5.62.409a.673.673,0,0,1-.453-.357,13.071,13.071,0,0,1-1.182-2.855.906.906,0,0,1,.552-.366,5.774,5.774,0,0,0,.713-.264c.86-.33,1.78-.473,2.624-.85.208-.072.429-.1.634-.178,1.459-.506,1.573-.167,1.113-1.979a31.4,31.4,0,0,1-.609-6.046,132.806,132.806,0,0,1,.736-14.809c.05-.446.218-.863.269-1.306.114-.239.167-.5.263-.746a4.35,4.35,0,0,1,2.186-2.208,17.291,17.291,0,0,1,4.345-1.461c.3.245.222.59.212.9a18.885,18.885,0,0,0,.53,4.112c.11.58.388.709.942.561a11.857,11.857,0,0,0,4.895-2.982,34.654,34.654,0,0,1,2.569-2.455.686.686,0,0,1,.789-.206c.386.159.817.21,1.2.368a2.054,2.054,0,0,0,1.7.15,1.447,1.447,0,0,1,1.093.055,9.945,9.945,0,0,1,3.7,2.544,2.741,2.741,0,0,1,.63,2.616,81.571,81.571,0,0,1-3.064,9.531,7.025,7.025,0,0,0-.293,3.352,4.277,4.277,0,0,1,.215,1.748c.013,2.5.057,5.009-.007,7.512a32.286,32.286,0,0,0,1.517,9.879c.187.642.35,1.292.585,1.921a17.61,17.61,0,0,0,1.325,2.87,26.613,26.613,0,0,1,2.458,5.4,1.844,1.844,0,0,1-.563,1.1q-4.724,6.162-8.962,12.669c-.352.539-.667,1.1-1.035,1.63a1.229,1.229,0,0,1-.809.6c-2.963.463-5.946.759-8.926,1.063-2.906.3-5.818.505-8.731.715-1.011.073-2.027.1-3.039.148-3.042.137-6.086.253-9.133.182A2.057,2.057,0,0,1,963.509,1574.921Z" transform="translate(-915.04 -1477.395)" fill="#00968f"/>
      <path id="Path_389" data-name="Path 389" d="M1016.318,1595.633c.79-.987,1.4-2.094,2.089-3.146,2.682-4.075,5.531-8.031,8.5-11.9.151-.2.286-.4.429-.6a1.689,1.689,0,0,1,.308-.662c2.812-3.656,5.762-7.2,8.763-10.7,2.6-3.03,5.249-6.006,7.995-8.9.851-.9,1.668-1.826,2.583-2.661a14.884,14.884,0,0,1,2.893,4.72,36.752,36.752,0,0,1,2.318,9.381,51.565,51.565,0,0,1,.428,7.392,39.949,39.949,0,0,1-.648,6.4,33.916,33.916,0,0,1-2.765,9.038,30.17,30.17,0,0,1-17.263,15.807,42.342,42.342,0,0,1-6.758,1.916c-2.263.479-4.527.935-6.827,1.2-.313.036-.45.151-.449.515q.021,9.264,0,18.528c0,.627.346.586.763.586q9.34,0,18.68,0a1.7,1.7,0,0,1,1.714,2.412,1.774,1.774,0,0,1-1.513,1.147,4.112,4.112,0,0,1-.521.006H994.322a1.858,1.858,0,0,1-1.987-1.225,1.761,1.761,0,0,1,1.619-2.337c2.778-.014,5.557-.006,8.336-.007,3.2,0,6.4-.016,9.6.013.626.006.856-.123.853-.81q-.043-8.892,0-17.783c0-.74-.331-.84-.923-.854a15.527,15.527,0,0,1-3.428-.341,61.109,61.109,0,0,1,7.368-16.448A1.977,1.977,0,0,1,1016.318,1595.633Z" transform="translate(-936.905 -1500.244)" fill="#b0cbde"/>
      <path id="Path_390" data-name="Path 390" d="M901,1554.886q-3.188-11.157-6.375-22.316a.682.682,0,0,1,.008-.18c.19-.011.385-.031.578-.032q14.988,0,29.977,0c.123,0,.247.016.37.024.392.264.434.709.542,1.105,1.161,4.271,2.342,8.536,3.485,12.812.652,2.439,1.346,4.866,1.992,7.306.051.192.115.379.147.575.108.665-.027.838-.716.9-.247.02-.5.011-.744.011q-13.986,0-27.971,0A1.942,1.942,0,0,1,901,1554.886Z" transform="translate(-890.514 -1488.504)" fill="#032d52"/>
      <path id="Path_391" data-name="Path 391" d="M932.976,1607.849a3.217,3.217,0,0,1,2.592,1.064,16.951,16.951,0,0,1,3.477,4.785,45.829,45.829,0,0,1,3.108,6.964c-.734.053-1.65-.329-2.156.143-.481.448-.563,1.332-.8,2.03-.807,2.368-1.745,4.68-2.777,6.96a39.281,39.281,0,0,1-5.663,8.591q-4.07,4.967-8.445,9.668c-2.153,2.326-4.271,4.684-6.5,6.938-.328.331-.594.723-.888,1.087a.918.918,0,0,1-.776.156,19.084,19.084,0,0,0-4.593,0c-.912.108-1.108-.166-.737-1q2.6-5.838,5.284-11.641c2.948-6.389,5.893-12.78,8.986-19.1a137.22,137.22,0,0,1,7.866-14.666A3.993,3.993,0,0,1,932.976,1607.849Z" transform="translate(-897.178 -1524.369)" fill="#aab2bb"/>
      <path id="Path_392" data-name="Path 392" d="M1073.259,1550.708a1,1,0,0,1-.347.555c-2.126,2.276-4.293,4.516-6.365,6.84q-4.19,4.7-8.17,9.577c-1.61,1.968-3.166,3.977-4.767,5.95a29.726,29.726,0,0,0-2.487-5.38c-1.414-2.23-1.9-4.731-2.583-7.18a27.689,27.689,0,0,1-.947-7.64c.016-2.9.069-5.8-.074-8.7a2.706,2.706,0,0,1,.1-.583,45.8,45.8,0,0,1,10.2-.315,30.841,30.841,0,0,1,8.54,1.7A15.29,15.29,0,0,1,1073.259,1550.708Z" transform="translate(-963.177 -1493.889)" fill="#6f8fb8"/>
      <path id="Path_393" data-name="Path 393" d="M1009.542,1463.2c-.1-1.945,1.022-3.13,2.565-4a14.084,14.084,0,0,1,5.095-1.5,5.416,5.416,0,0,1,1.324-.14c.757.087.966-.229,1.114-.931a8.86,8.86,0,0,1,2.094-4.284,7.683,7.683,0,0,1,5.677-2.49,18.774,18.774,0,0,1,8.894,2,5.885,5.885,0,0,0,5.274-.005c1.9-.827,3.774-1.728,5.672-2.566a5.709,5.709,0,0,1,4.823.08,10.81,10.81,0,0,1,4.819,4.161c2.134,3.4.921,6.033-2.518,7.718a8.89,8.89,0,0,1-5.974.271,20.329,20.329,0,0,1-5.056-2.262c-1.31-.695-2.573-1.48-3.871-2.2a8.222,8.222,0,0,0-1.359-.576,1.492,1.492,0,0,0-1.623.364,6.878,6.878,0,0,1-5.619,1.53c-1.994-.189-3.8-1.07-5.731-1.5a10.192,10.192,0,0,0-3.02-.26,1.706,1.706,0,0,0-1.6,1,3.833,3.833,0,0,1,2.738,2.147,7.8,7.8,0,0,1,.549,3.553,21.241,21.241,0,0,1-1.523,6.765,1.076,1.076,0,0,1-.932.107,4.559,4.559,0,0,1-3.633-3.426,1.317,1.317,0,0,1-.034-.145c-.43-3.192-3.214-4.011-5.531-3.756a11.831,11.831,0,0,0-1.9.343A.784.784,0,0,1,1009.542,1463.2Z" transform="translate(-945.127 -1448.79)" fill="#032d52"/>
      <path id="Path_394" data-name="Path 394" d="M1010.1,1630.562c-.745,1.3-1.52,2.592-2.23,3.914a55.629,55.629,0,0,0-5.275,12.434c-.069.271.02.687-.421.781-5.893-.768-11.511-2.315-16.338-5.971a19.945,19.945,0,0,1-6.422-8.406c-.086-.206-.173-.411-.259-.616,2.13-.034,4.263-.027,6.391-.109,5.467-.21,10.929-.5,16.369-1.117Q1006.011,1631.01,1010.1,1630.562Z" transform="translate(-930.691 -1535.173)" fill="#6f8fb8"/>
      <path id="Path_395" data-name="Path 395" d="M922.6,1607.836c-1.637,1.264-2.539,3.078-3.536,4.8-2.143,3.713-4.045,7.555-5.927,11.405-3.632,7.429-7.073,14.949-10.552,22.451-1.354,2.918-2.648,5.864-3.969,8.8a1.408,1.408,0,0,0-.191.788,26.7,26.7,0,0,1,6.124-.015,32.57,32.57,0,0,1-1.062,3.85c-.109.409-.474.286-.751.287q-4.95.009-9.9,0H886.8a6.668,6.668,0,0,1,1.851-1.939,12.632,12.632,0,0,1,7.013-2.336.854.854,0,0,0,.9-.638c3.183-8.248,6.426-16.472,9.8-24.645,2.474-6,4.951-12,7.9-17.787a25.465,25.465,0,0,1,2.361-3.952,3.439,3.439,0,0,1,1.368-1.108Z" transform="translate(-886.799 -1524.356)" fill="#737b84"/>
      <path id="Path_396" data-name="Path 396" d="M1009.28,1475.743a10.37,10.37,0,0,1,4.662-.464,4.258,4.258,0,0,1,3.6,3.448,4.379,4.379,0,0,0,4.481,3.9,4.147,4.147,0,0,1-.834,3,1.47,1.47,0,0,0-.256.9,8.838,8.838,0,0,0,1.208,5.248,4.818,4.818,0,0,0,1.406,1.407c-2.1,2.536-4.38,4.816-7.711,5.7-.537.142-.707-.024-.82-.488a20.407,20.407,0,0,1-.616-5.347,9.677,9.677,0,0,0,.416-3.731c-.027-.4-.15-.562-.643-.5-2.1.25-2.483.034-3.341-1.933a25.637,25.637,0,0,1-1.784-7.913A7.7,7.7,0,0,1,1009.28,1475.743Z" transform="translate(-944.864 -1461.33)" fill="#c8735f"/>
      <path id="Path_397" data-name="Path 397" d="M996.252,1581.965c-1.792.183-3.593.244-5.384.456a86.452,86.452,0,0,0-10.234,2.027c-.239.058-.48.114-.719.171a35.488,35.488,0,0,1,7.005-10.917c.366-.4.716-.815,1.074-1.223a1.22,1.22,0,0,1,1.347-.308q3.09-.28,6.18-.561c.235-.021.407-.011.536.251a16.841,16.841,0,0,1,1.536,3.9,2.212,2.212,0,0,1-.086,1.306.907.907,0,0,1,.135.771,24.311,24.311,0,0,1-1.076,3.736A.586.586,0,0,1,996.252,1581.965Z" transform="translate(-931.05 -1507.153)" fill="#6f8fb8"/>
      <path id="Path_398" data-name="Path 398" d="M993.9,1517.244a124.909,124.909,0,0,0-.93,13.98,41.8,41.8,0,0,0,.6,8.494,2.653,2.653,0,0,1-1.384,1.864c-.159.13-.4.087-.544.243a13.345,13.345,0,0,1-2.646.873c-.18.123-.427.015-.6.174a3.277,3.277,0,0,0-.679.23,4.1,4.1,0,0,1-1.216.41,1.464,1.464,0,0,0-.806.227,2.126,2.126,0,0,1-.862.241,1.962,1.962,0,0,0-.983.251.921.921,0,0,1-.784.062,11.459,11.459,0,0,0-2.229-.724c-.476-.1-1.032-1.387-1-2.136,2.722-1.242,5.368-2.631,7.987-4.074a1.78,1.78,0,0,0,.987-1.273c1.051-4.856,2.174-9.7,3.455-14.5a21.573,21.573,0,0,1,1.493-4.492C993.878,1517.072,993.936,1517.112,993.9,1517.244Z" transform="translate(-931.011 -1481.248)" fill="#036a65"/>
      <path id="Path_399" data-name="Path 399" d="M977.236,1565.917l.818-.3a5.7,5.7,0,0,1,.8-.139c.32-.316.794-.22,1.153-.431.076.043.175.057.206.157a23.73,23.73,0,0,0,1.5,3.1l-1.348.308c-1.5.238-3.061.2-4.461.94a4.216,4.216,0,0,1-1.968.271,5.944,5.944,0,0,1-1.219.009c-1.042-.2-2.014-.638-3.031-.926a2.6,2.6,0,0,0-1.508-.016,5.052,5.052,0,0,1-3.328-.059,8.6,8.6,0,0,1-.988-3.8,4.875,4.875,0,0,1,4-.049,1.148,1.148,0,0,0,1.042,0,34.755,34.755,0,0,0,3.338-1.52c.245.563.492,1.124.736,1.687.072.166.16.3.369.308a5.236,5.236,0,0,1,2.094.649.7.7,0,0,0,.826-.053A6.622,6.622,0,0,0,977.236,1565.917Z" transform="translate(-923.42 -1503.289)" fill="#c8735f"/>
      <path id="Path_400" data-name="Path 400" d="M936.714,1550.247l1.011,3.72c.353.736.972.835,1.719.827,2.046-.021,4.094-.078,6.138.085.4.07.837-.14,1.208.156.039.514-.132.712-.71.711q-19.322-.029-38.642,0c-.746,0-.725-.366-.68-.866,2.307.007,4.613.019,6.92.019q11.46,0,22.92.012c.627,0,.875-.046.67-.789q-3.005-10.864-5.951-21.746c.564-.151.587.293.68.635q2.036,7.476,4.067,14.955C936.269,1548.729,936.5,1549.487,936.714,1550.247Z" transform="translate(-896.274 -1488.499)" fill="#008ccf"/>
      <path id="Path_401" data-name="Path 401" d="M1006.506,1516.828l-.142-.148a.761.761,0,0,1,.261-.465C1006.629,1516.427,1006.678,1516.649,1006.506,1516.828Z" transform="translate(-943.619 -1480.832)" fill="#3e6c3b"/>
      <path id="Path_402" data-name="Path 402" d="M1011.047,1586.267c.367-1.321.874-2.6,1.152-3.951.065-.318.039-.632.1-.943.462-.082.159-.512.329-.718,1.42,3.715,4.681,4.961,8.1,6.086-.471,0-.941,0-1.413,0-.5-.005-.993,0-1.487-.03-2.1-.125-4.193-.341-6.3-.3A.562.562,0,0,1,1011.047,1586.267Z" transform="translate(-945.845 -1511.456)" fill="#036a65"/>
      <path id="Path_403" data-name="Path 403" d="M1003.191,1562.014a4.519,4.519,0,0,0,1.475-1.805c.419,1.758.792,1.338-1.286,1.959C1003.22,1562.235,1003.178,1562.159,1003.191,1562.014Z" transform="translate(-942.11 -1501.739)" fill="#f1f4ef"/>
      <path id="Path_404" data-name="Path 404" d="M994.838,1566.481l-.206-.157.766-.17c.042.027.057.055.044.084s-.026.044-.039.044Z" transform="translate(-938.044 -1504.565)" fill="#c6dbbf"/>
      <path id="Path_405" data-name="Path 405" d="M1002.783,1563.649l.189.154c-.184.18-.422.123-.642.147C1002.368,1563.68,1002.623,1563.736,1002.783,1563.649Z" transform="translate(-941.702 -1503.374)" fill="#dce0d9"/>
      <path id="Path_406" data-name="Path 406" d="M996.1,1566.129a.617.617,0,0,1-.005-.128.624.624,0,0,1,.627-.14C996.572,1566.093,996.291,1566.011,996.1,1566.129Z" transform="translate(-938.737 -1504.411)" fill="#a0b397"/>
      <path id="Path_407" data-name="Path 407" d="M1031.889,1663.786h3.22C1034.044,1663.929,1032.984,1664.3,1031.889,1663.786Z" transform="translate(-955.75 -1550.962)" fill="#a4bbd2"/>
      <path id="Path_408" data-name="Path 408" d="M927.669,1552.88a1.342,1.342,0,0,1-1.313,1.4,2.4,2.4,0,0,1-2.194-2.3,1.293,1.293,0,0,1,1.313-1.383A2.354,2.354,0,0,1,927.669,1552.88Z" transform="translate(-904.555 -1497.175)" fill="#d1daeb"/>
      <path id="Path_409" data-name="Path 409" d="M988.474,1568.035c-.307.158-.6.376-.968.144C987.824,1568.1,988.1,1567.755,988.474,1568.035Z" transform="translate(-934.657 -1505.407)" fill="#d7dad4"/>
      <path id="Path_410" data-name="Path 410" d="M991.709,1567.208a.913.913,0,0,1-.8.139C991.163,1567.233,991.391,1566.962,991.709,1567.208Z" transform="translate(-936.274 -1505.018)" fill="#e8e2dc"/>
      <path id="Path_411" data-name="Path 411" d="M973.642,1574.175a13.236,13.236,0,0,1-2.573.076c-1.357.024-2.717-.043-4.07.025-.8.041-1.216-.186-1.213-1.014a6.448,6.448,0,0,0,3.844-.28c.175-.083.333.011.5.065C971.3,1573.427,972.471,1573.8,973.642,1574.175Z" transform="translate(-924.336 -1507.794)" fill="#f2f6fa"/>
    </g>
    <g id="Symbols-2" data-name="Symbols" transform="translate(289.174 2867.328)">
      <g id="Scene_Plants" data-name="Scene/Plants" transform="translate(0 0)">
        <g id="Maceta" transform="translate(0 0)">
          <path id="Fill-27" d="M36.667,27.824a35.256,35.256,0,0,0-1.752,3.454,47.26,47.26,0,0,1,.479-7.3c.622-4.216,1.572-8.41,2.465-12.6C38.5,8.373,38.461,2.968,40.9.57c.668-.518.829.5.829.94.008.093,0-1.8-.65-1.471-3.853,1.99-5.1,8.247-6.335,11.379a60.289,60.289,0,0,0-3.961,14,31.369,31.369,0,0,0-.266,3.6c-.131-.321-.254-.644-.39-.964a65.039,65.039,0,0,0-8.968-15C20.234,11.908,8.649.514,7.743,2.258a1.2,1.2,0,0,0,.562.631c.017.019.017.008.007-.02.68,1.1,2.615,2.8,3.217,3.759a72.738,72.738,0,0,1,3.892,7.518c2.53,5.331,4.878,10.716,7.153,16.112.53,1.257,1.082,2.507,1.645,3.753C18.413,25.633,10.665,18.028,0,13.675c3.643,1.853,6.031,5.34,8.491,8.009,2.967,3.22,6.092,6.353,9.065,9.57,3.506,3.794,7.632,7.79,11,11.989C31.826,50.1,35,56.966,36.96,64.176c-.8-2.491-.063-5.933-.2-8.547a57.745,57.745,0,0,0-.685-6.2A12.739,12.739,0,0,1,37,52.148c-.147-1.45-.316-2.892-.5-4.326.466-1.342.925-2.6,1.234-3.627A93.181,93.181,0,0,1,43.784,28.63a138.953,138.953,0,0,1,8.083-13.81c1.387-2.093,2.794-4.178,4.191-6.267C56.972,7.185,57.843,5,59.117,3.686,50.884,11.212,41.89,18.793,36.667,27.824" transform="translate(0 0)" fill="#00a95f" fill-rule="evenodd"/>
          <path id="Base" d="M15.418,48.456c0,16.839,1.329,30.49,19.165,30.49s19.165-13.651,19.165-30.49" transform="translate(-3.222 -10.125)" fill="#d5d9e0" fill-rule="evenodd"/>
        </g>
      </g>
    </g>
  </g>
</svg>
